HIERARCHY
ROOT Hips
{
  OFFSET 36.1962 39.0038 72.7268
  CHANNELS 6 Xposition Yposition Zposition Zrotation Xrotation Yrotation
  JOINT LeftHip
  {
    OFFSET 3.43 -1.42109e-014 -1.42109e-014
    CHANNELS 3 Zrotation Xrotation Yrotation
    JOINT LeftKnee
    {
      OFFSET -2.84217e-014 -18.47 2.84217e-014
      CHANNELS 3 Zrotation Xrotation Yrotation
      JOINT LeftAnkle
      {
        OFFSET -1.67688e-012 -17.95 -4.68958e-013
        CHANNELS 3 Zrotation Xrotation Yrotation
        End Site
        {
          OFFSET 0 -3.12 0
        }
      }
    }
  }
  JOINT RightHip
  {
    OFFSET -3.43 -7.10543e-015 0
    CHANNELS 3 Zrotation Xrotation Yrotation
    JOINT RightKnee
    {
      OFFSET 2.20268e-013 -18.47 1.42109e-013
      CHANNELS 3 Zrotation Xrotation Yrotation
      JOINT RightAnkle
      {
        OFFSET -3.30758e-012 -17.95 -1.49214e-012
        CHANNELS 3 Zrotation Xrotation Yrotation
        End Site
        {
          OFFSET 0 -3.12 0
        }
      }
    }
  }
  JOINT Chest
  {
    OFFSET -8.88178e-014 4.57 -2.13163e-013
    CHANNELS 3 Zrotation Xrotation Yrotation
    JOINT Chest2
    {
      OFFSET 1.06581e-014 6.57 1.42109e-014
      CHANNELS 3 Zrotation Xrotation Yrotation
      JOINT LeftCollar
      {
        OFFSET 1.06 4.19 1.76
        CHANNELS 3 Zrotation Xrotation Yrotation
        JOINT LeftShoulder
        {
          OFFSET 5.81 2.13163e-014 1.42109e-014
          CHANNELS 3 Zrotation Xrotation Yrotation
          JOINT LeftElbow
          {
            OFFSET 4.9738e-014 -12.08 2.13163e-013
            CHANNELS 3 Zrotation Xrotation Yrotation
            JOINT LeftWrist
            {
              OFFSET 5.79803e-012 -9.82 -4.26326e-014
              CHANNELS 3 Zrotation Xrotation Yrotation
              End Site
              {
                OFFSET 0 -7.37 0
              }
            }
          }
        }
      }
      JOINT RightCollar
      {
        OFFSET -1.06 4.19 1.76
        CHANNELS 3 Zrotation Xrotation Yrotation
        JOINT RightShoulder
        {
          OFFSET -6.06 -7.10543e-015 -2.84217e-014
          CHANNELS 3 Zrotation Xrotation Yrotation
          JOINT RightElbow
          {
            OFFSET -4.01457e-013 -11.08 -6.96332e-013
            CHANNELS 3 Zrotation Xrotation Yrotation
            JOINT RightWrist
            {
              OFFSET 5.17986e-012 -9.82 -1.15392e-011
              CHANNELS 3 Zrotation Xrotation Yrotation
              End Site
              {
                OFFSET 0 -7.14001 0
              }
            }
          }
        }
      }
      JOINT Neck
      {
        OFFSET 1.42109e-014 4.05 1.42109e-014
        CHANNELS 3 Zrotation Xrotation Yrotation
        JOINT Head
        {
          OFFSET 5.68434e-014 5.19 7.10543e-014
          CHANNELS 3 Zrotation Xrotation Yrotation
          End Site
          {
            OFFSET 0 4.14001 0
          }
        }
      }
    }
  }
}
MOTION
Frames:	7
Frame Time:	0.0333333
-26.8658 39.0844 3.13336 -4.78804 -1.61019 -105.423 -7.80369 -3.2209 -9.61343 0.385011 21.5045 -9.56215 5.56865 -12.595 0.615019 -7.98279 -14.675 -8.55052 8.20736 57 -20.116 -1.43809 -7.32033 -0.091998 0.5758 4.09919 6.58548 -0.223636 6.09752 8.8687 5.89664 0.0104354 1.33356 10.5241 -29.2715 -5.69983 -12.8674 -4.30363 -49.6115 9.53505 -2.01674 0.168216 -11.5122 0.371147 -1.50377 -13.9087 15.4108 -3.75815 9.07154 -24.3219 44.6706 -0.237205 -8.11446 -0.0168251 -7.32926 -9.29383 31.3113 -5.50905 -0.336237 38.1101 
-27.5076 39.1371 2.4738 -4.58964 -1.26944 -103.093 -6.52741 -1.61569 -9.26209 1.00839 20.7544 -12.2934 5.3726 -13.5065 0.63666 -8.96353 -16.558 -8.74982 6.34198 51.4089 -20.2152 -2.13782 -11.882 -0.222494 0.990901 4.29407 5.97785 -0.0205553 6.32413 8.11694 5.9309 0.00999807 1.23066 9.24065 -31.434 -7.45633 -13.566 -5.06653 -50.6374 9.85425 -1.90392 0.164146 -11.4485 0.377816 -1.637 -13.6417 16.0995 -4.04329 8.94874 -23.9986 44.6093 -0.110806 -8.07011 -0.00781645 -7.32308 -9.29831 31.1355 -5.37156 -0.660809 38.0738 
-28.1345 39.1605 1.804 -4.38857 -1.10886 -101.027 -5.26107 -0.145052 -8.86708 1.463 19.9322 -14.7737 5.13801 -14.4014 0.649573 -10.1403 -17.4411 -8.83539 4.39407 42.9185 -19.2187 -2.62935 -12.1678 -0.280297 1.28959 4.4479 5.47188 0.053941 6.48409 7.50544 5.97028 0.00978413 1.15546 8.06683 -33.2958 -9.05574 -14.1847 -5.83057 -51.5022 10.0131 -1.82109 0.159548 -11.3664 0.384227 -1.77342 -13.3281 16.7687 -4.2295 8.91595 -23.6304 44.7933 0.246075 -8.07576 0.0173708 -7.18484 -9.34484 30.9782 -5.25058 -0.884537 38.0387 
-28.7664 39.1497 1.10273 -4.16322 -1.18429 -99.2614 -4.05758 1.25448 -8.43644 1.75367 18.9904 -17.0014 4.84767 -15.2974 0.651392 -11.3522 -17.07 -8.81542 2.55537 31.9199 -18.001 -2.64643 -7.87459 -0.182179 1.42339 4.54244 5.06993 -0.0301487 6.56138 7.04149 6.01183 0.00992349 1.12378 7.10873 -34.8185 -10.3839 -14.6959 -6.51323 -52.1323 9.96078 -1.81403 0.158095 -11.2696 0.390128 -1.90856 -12.945 17.3865 -4.32734 8.95286 -23.2237 45.0873 0.701194 -8.07491 0.0494935 -6.94734 -9.43936 30.8503 -5.13503 -0.985219 38.0039 
-29.4454 39.0879 0.33257 -3.97592 -1.69956 -97.7704 -3.12594 2.75958 -8.03725 1.98511 17.8197 -18.9816 4.39166 -16.2273 0.626394 -13.095 -15.8308 -8.66533 0.702329 20.6522 -17.1723 2.64095 -1.38937 0.0320276 1.13749 4.56162 4.76735 -0.259628 6.55338 6.70024 6.04038 0.0103771 1.1429 6.52843 -35.9555 -11.3001 -15.0806 -7.05896 -52.5107 9.70158 -1.90099 0.161343 -11.16 0.395307 -2.03882 -12.4857 17.9829 -4.35788 9.05289 -22.8033 45.3832 1.20057 -8.04351 0.0844132 -6.67256 -9.5657 30.7544 -5.0083 -0.983539 37.9679 
-30.2313 38.9402 -0.562539 -3.9398 -2.87446 -96.4886 -2.62051 4.5426 -7.70748 2.20807 16.4583 -20.7812 3.70115 -17.3239 0.564031 -14.7047 -14.1474 -8.36169 -1.1001 10.9565 -17.9226 5.10788 2.03198 -0.0906441 0.107676 4.49074 4.55266 -0.588955 6.47032 6.43768 6.0374 0.0109814 1.21293 6.52681 -36.6472 -11.6502 -15.3284 -7.44751 -52.6847 9.30379 -2.06691 0.168202 -11.0493 0.399708 -2.15943 -11.9299 18.6307 -4.35626 9.20545 -22.3957 45.648 1.76429 -8.01087 0.123549 -6.43233 -9.68723 30.6829 -4.86687 -0.92237 37.9276 
-31.1082 38.7484 -1.57237 -4.01585 -4.01721 -95.3063 -1.93355 6.95227 -7.32873 2.61092 14.3959 -22.5826 2.6803 -18.38 0.433711 -15.8598 -12.6918 -8.26158 -2.54901 4.54763 -18.9735 6.00177 3.6634 -0.192113 -0.978877 4.39882 4.35424 -0.907674 6.40195 6.21071 5.98918 0.0114976 1.33185 7.03127 -36.8925 -11.4547 -15.4267 -7.69186 -52.6956 8.91012 -2.26608 0.176579 -10.9514 0.403419 -2.2664 -11.3391 19.2335 -4.32505 9.38822 -22.0212 45.8723 2.39271 -8.02181 0.167796 -6.2722 -9.76322 30.6251 -4.72234 -0.847533 37.8841 
